<svg width="266" height="266" viewBox="0 0 266 266" fill="none" xmlns="http://www.w3.org/2000/svg">
<path d="M218.847 143.441C202.677 143.441 186.51 137.289 174.201 124.976C156.361 107.137 151.52 81.2091 159.532 58.905H75.9214H19.1495C9.37995 58.9079 1.46155 66.8263 1.46155 76.5959V124.252L71.0512 183.567C77.7025 189.237 87.3231 189.754 94.5466 184.834L136.539 156.218C143.342 151.581 152.329 151.748 158.954 156.63L238.225 215.028V141.216V140.358C231.93 142.378 225.396 143.441 218.847 143.441Z" fill="#C1E5F4"/>
<path d="M83.0456 129.972C92.837 129.972 100.774 122.035 100.774 112.243C100.774 102.452 92.837 94.5145 83.0456 94.5145C73.2543 94.5145 65.3168 102.452 65.3168 112.243C65.3168 122.035 73.2543 129.972 83.0456 129.972Z" fill="#FFF0A9"/>
<path d="M250.944 48.2362C233.247 30.5395 204.455 30.5395 186.759 48.2362C169.062 65.9329 169.062 94.7276 186.759 112.424C195.608 121.274 207.229 125.698 218.853 125.698C230.473 125.698 242.1 121.274 250.947 112.427C259.519 103.852 264.24 92.4531 264.24 80.3302C264.24 68.2074 259.519 56.8086 250.944 48.2362ZM240.564 58.6159C246.366 64.4146 249.56 72.1257 249.56 80.3273C249.56 86.0209 247.989 91.4604 245.107 96.205L202.981 54.0786C214.785 46.9486 230.38 48.4318 240.564 58.6159ZM197.138 102.045C186.96 91.8633 185.468 76.2659 192.601 64.4584L234.722 106.582C222.917 113.715 207.32 112.223 197.138 102.045Z" fill="#E29393"/>
<path d="M1.46155 118.378V213.051C1.46155 222.821 9.37995 230.739 19.1495 230.739H220.537C230.307 230.739 238.225 222.821 238.225 213.051V209.153L158.954 150.755C152.326 145.873 143.339 145.707 136.539 150.343L94.5437 178.96C87.3231 183.883 77.6995 183.363 71.0483 177.693L1.46155 118.378Z" fill="#96EA9C"/>
<rect x="0.5" y="0.5" width="265" height="265" stroke="#DBDBDB"/>
</svg>
